<svg xmlns="http://www.w3.org/2000/svg" xmlns:xlink="http://www.w3.org/1999/xlink" width="500" height="500" viewBox="0 0 500 500"><defs><clipPath id="b"><rect width="500" height="500"/></clipPath></defs><g id="a" clip-path="url(#b)"><rect width="500" height="500" fill="rgba(255,255,255,0)"/><path d="M-1022,497h-300a99.375,99.375,0,0,1-38.925-7.858,100.008,100.008,0,0,1-16.986-9.22,100.711,100.711,0,0,1-14.8-12.211,100.711,100.711,0,0,1-12.211-14.8,100.012,100.012,0,0,1-9.22-16.986A99.374,99.374,0,0,1-1422,397V97a99.374,99.374,0,0,1,7.858-38.925,100.006,100.006,0,0,1,9.22-16.986,100.712,100.712,0,0,1,12.211-14.8,100.708,100.708,0,0,1,14.8-12.211,100.011,100.011,0,0,1,16.986-9.22A99.375,99.375,0,0,1-1322-3h300a99.375,99.375,0,0,1,38.925,7.858,100.015,100.015,0,0,1,16.987,9.22,100.725,100.725,0,0,1,14.8,12.211,100.737,100.737,0,0,1,12.211,14.8,100,100,0,0,1,9.22,16.986A99.371,99.371,0,0,1-922,97V397a99.371,99.371,0,0,1-7.859,38.924,100.006,100.006,0,0,1-9.22,16.986,100.732,100.732,0,0,1-12.211,14.8,100.727,100.727,0,0,1-14.8,12.211,100.017,100.017,0,0,1-16.987,9.22A99.375,99.375,0,0,1-1022,497ZM-1289,57a59.067,59.067,0,0,0-59,59V378a59.067,59.067,0,0,0,59,59h33a59.067,59.067,0,0,0,59-59V116a59.067,59.067,0,0,0-59-59Zm207,203a59.067,59.067,0,0,0-59,59v55a59.067,59.067,0,0,0,59,59h36a59.066,59.066,0,0,0,59-59V319a59.066,59.066,0,0,0-59-59Zm34.047-205.979c-.348,0-.7,0-1.05.009l-33.006.576a59.068,59.068,0,0,0-57.962,60.021l.76,43.527a59.267,59.267,0,0,0,58.97,57.97c.367,0,.721,0,1.05-.009l33.006-.576a58.614,58.614,0,0,0,41.411-18.006,58.614,58.614,0,0,0,16.55-42.015l-.76-43.527A59.269,59.269,0,0,0-1047.953,54.021Z" transform="translate(1422 3)" fill="#90f"/></g></svg>